<svg width="122" height="15" viewBox="0 0 122 15" fill="none" xmlns="http://www.w3.org/2000/svg">
<path d="M2.5 5.90909C2.5 5.36553 2.63258 4.87003 2.89773 4.42259C3.16288 3.97514 3.51918 3.61884 3.96662 3.35369C4.41406 3.08854 4.90956 2.95597 5.45312 2.95597C5.92377 2.95597 6.35795 3.05705 6.75568 3.25923C7.15672 3.46141 7.48816 3.73816 7.75 4.08949C8.01184 4.4375 8.17424 4.83191 8.23722 5.27273H7.03409C6.9678 4.93134 6.78385 4.65294 6.48224 4.4375C6.18063 4.21875 5.83759 4.10938 5.45312 4.10938C5.12169 4.10938 4.82008 4.19058 4.5483 4.35298C4.27652 4.51539 4.05942 4.73248 3.89702 5.00426C3.73461 5.27604 3.65341 5.57765 3.65341 5.90909C3.65341 6.24053 3.73461 6.54214 3.89702 6.81392C4.05942 7.0857 4.27652 7.30279 4.5483 7.4652C4.82008 7.6276 5.12169 7.70881 5.45312 7.70881C5.83759 7.70881 6.16241 7.60109 6.42756 7.38565C6.69602 7.1669 6.86506 6.88684 6.93466 6.54545H8.13778C8.07481 6.98627 7.92069 7.38234 7.67543 7.73366C7.43016 8.08168 7.11529 8.35677 6.73082 8.55895C6.34967 8.76113 5.92377 8.86222 5.45312 8.86222C4.90956 8.86222 4.41406 8.72964 3.96662 8.46449C3.51918 8.19934 3.16288 7.84304 2.89773 7.3956C2.63258 6.94815 2.5 6.45265 2.5 5.90909ZM5.40341 11.1591C4.68087 11.1591 4.00142 11.0232 3.36506 10.7514C2.73201 10.4796 2.17353 10.1035 1.68963 9.62287C1.20904 9.13897 0.831203 8.58049 0.556108 7.94744C0.284328 7.31439 0.150095 6.63494 0.153409 5.90909C0.156723 5.18324 0.294271 4.50379 0.566051 3.87074C0.841146 3.23769 1.21899 2.68087 1.69957 2.20028C2.18016 1.71638 2.73698 1.33854 3.37003 1.06676C4.00308 0.794981 4.68087 0.659091 5.40341 0.659091C6.12926 0.659091 6.80871 0.794981 7.44176 1.06676C8.07813 1.33854 8.63494 1.71638 9.11222 2.20028C9.5928 2.68087 9.96899 3.23769 10.2408 3.87074C10.5125 4.50379 10.6501 5.18324 10.6534 5.90909C10.6567 6.63494 10.5225 7.31439 10.2507 7.94744C9.97893 8.58049 9.60275 9.13897 9.12216 9.62287C8.64157 10.1035 8.0831 10.4796 7.44673 10.7514C6.81037 11.0232 6.12926 11.1591 5.40341 11.1591ZM5.40341 10.0057C5.97017 10.0057 6.50213 9.89962 6.99929 9.6875C7.49645 9.47538 7.93229 9.18205 8.30682 8.80753C8.68134 8.433 8.97467 7.99882 9.18679 7.50497C9.39891 7.00781 9.50331 6.47751 9.5 5.91406C9.49669 5.3473 9.38897 4.81534 9.17685 4.31818C8.96473 3.82102 8.6714 3.38518 8.29688 3.01065C7.92235 2.63613 7.48816 2.3428 6.99432 2.13068C6.50047 1.91856 5.97017 1.8125 5.40341 1.8125C4.83996 1.8125 4.31132 1.91856 3.81747 2.13068C3.32363 2.3428 2.88944 2.63778 2.51491 3.01562C2.14039 3.39015 1.84541 3.82599 1.62997 4.32315C1.41785 4.817 1.31013 5.3473 1.30682 5.91406C1.3035 6.47419 1.40791 7.00284 1.62003 7.5C1.83215 7.99384 2.12547 8.42803 2.5 8.80256C2.87784 9.17708 3.31368 9.47206 3.80753 9.6875C4.30469 9.89962 4.83665 10.0057 5.40341 10.0057ZM25.5742 4H24.3412C24.2683 3.64536 24.1407 3.33381 23.9584 3.06534C23.7794 2.79688 23.5607 2.5715 23.3022 2.3892C23.047 2.2036 22.7636 2.06439 22.452 1.97159C22.1405 1.87879 21.8157 1.83239 21.4776 1.83239C20.8611 1.83239 20.3026 1.98816 19.8022 2.29972C19.305 2.61127 18.9089 3.07031 18.614 3.67685C18.3223 4.28338 18.1765 5.02746 18.1765 5.90909C18.1765 6.79072 18.3223 7.5348 18.614 8.14134C18.9089 8.74787 19.305 9.20691 19.8022 9.51847C20.3026 9.83002 20.8611 9.9858 21.4776 9.9858C21.8157 9.9858 22.1405 9.93939 22.452 9.84659C22.7636 9.75379 23.047 9.61624 23.3022 9.43395C23.5607 9.24834 23.7794 9.02131 23.9584 8.75284C24.1407 8.48106 24.2683 8.16951 24.3412 7.81818H25.5742C25.4814 8.33854 25.3123 8.80421 25.0671 9.2152C24.8218 9.62618 24.5169 9.97585 24.1523 10.2642C23.7877 10.5492 23.3784 10.7663 22.9243 10.9155C22.4736 11.0646 21.9913 11.1392 21.4776 11.1392C20.6092 11.1392 19.837 10.9271 19.1608 10.5028C18.4847 10.0786 17.9527 9.47538 17.5649 8.69318C17.1772 7.91098 16.9833 6.98295 16.9833 5.90909C16.9833 4.83523 17.1772 3.9072 17.5649 3.125C17.9527 2.3428 18.4847 1.73958 19.1608 1.31534C19.837 0.891098 20.6092 0.678977 21.4776 0.678977C21.9913 0.678977 22.4736 0.753551 22.9243 0.902699C23.3784 1.05185 23.7877 1.2706 24.1523 1.55895C24.5169 1.84399 24.8218 2.192 25.0671 2.60298C25.3123 3.01065 25.4814 3.47633 25.5742 4ZM30.7097 11.1591C30.0203 11.1591 29.4155 10.995 28.8951 10.6669C28.3781 10.3388 27.9737 9.87973 27.682 9.28977C27.3937 8.69981 27.2495 8.01042 27.2495 7.22159C27.2495 6.42614 27.3937 5.73177 27.682 5.13849C27.9737 4.54522 28.3781 4.08452 28.8951 3.75639C29.4155 3.42827 30.0203 3.2642 30.7097 3.2642C31.3991 3.2642 32.0023 3.42827 32.5194 3.75639C33.0397 4.08452 33.4441 4.54522 33.7325 5.13849C34.0241 5.73177 34.17 6.42614 34.17 7.22159C34.17 8.01042 34.0241 8.69981 33.7325 9.28977C33.4441 9.87973 33.0397 10.3388 32.5194 10.6669C32.0023 10.995 31.3991 11.1591 30.7097 11.1591ZM30.7097 10.1051C31.2334 10.1051 31.6643 9.97088 32.0023 9.70241C32.3404 9.43395 32.5906 9.08097 32.7531 8.64347C32.9155 8.20597 32.9967 7.73201 32.9967 7.22159C32.9967 6.71117 32.9155 6.23556 32.7531 5.79474C32.5906 5.35393 32.3404 4.99763 32.0023 4.72585C31.6643 4.45407 31.2334 4.31818 30.7097 4.31818C30.1861 4.31818 29.7552 4.45407 29.4171 4.72585C29.079 4.99763 28.8288 5.35393 28.6664 5.79474C28.504 6.23556 28.4228 6.71117 28.4228 7.22159C28.4228 7.73201 28.504 8.20597 28.6664 8.64347C28.8288 9.08097 29.079 9.43395 29.4171 9.70241C29.7552 9.97088 30.1861 10.1051 30.7097 10.1051ZM36.161 13.8636V3.36364H37.2945V4.5767H37.4337C37.5199 4.44413 37.6392 4.27509 37.7917 4.0696C37.9474 3.8608 38.1695 3.67519 38.4578 3.51278C38.7495 3.34706 39.1439 3.2642 39.6411 3.2642C40.2841 3.2642 40.8508 3.42495 41.3414 3.74645C41.8319 4.06794 42.2147 4.52367 42.4898 5.11364C42.7649 5.7036 42.9024 6.39962 42.9024 7.2017C42.9024 8.01042 42.7649 8.71141 42.4898 9.30469C42.2147 9.89465 41.8336 10.352 41.3463 10.6768C40.8591 10.9983 40.2973 11.1591 39.661 11.1591C39.1704 11.1591 38.7777 11.0779 38.4827 10.9155C38.1877 10.7498 37.9607 10.5625 37.8016 10.3537C37.6425 10.1416 37.5199 9.96591 37.4337 9.8267H37.3343V13.8636H36.161ZM37.3144 7.18182C37.3144 7.75852 37.3989 8.26728 37.5679 8.7081C37.737 9.1456 37.9839 9.48864 38.3087 9.73722C38.6335 9.98248 39.0312 10.1051 39.5019 10.1051C39.9924 10.1051 40.4017 9.97585 40.7299 9.71733C41.0613 9.45549 41.3099 9.10417 41.4756 8.66335C41.6446 8.21922 41.7292 7.72538 41.7292 7.18182C41.7292 6.64489 41.6463 6.16098 41.4806 5.73011C41.3182 5.29593 41.0712 4.95289 40.7398 4.70099C40.4117 4.44579 39.999 4.31818 39.5019 4.31818C39.0246 4.31818 38.6236 4.43916 38.2988 4.68111C37.9739 4.91974 37.7287 5.2545 37.563 5.68537C37.3972 6.11293 37.3144 6.61174 37.3144 7.18182ZM45.3745 13.8636C45.1756 13.8636 44.9983 13.8471 44.8425 13.8139C44.6867 13.7841 44.579 13.7543 44.5194 13.7244L44.8176 12.6903C45.1027 12.7633 45.3546 12.7898 45.5733 12.7699C45.7921 12.75 45.986 12.6522 46.155 12.4766C46.3274 12.3042 46.4848 12.0241 46.6273 11.6364L46.8461 11.0398L44.0222 3.36364H45.2949L47.4029 9.44886H47.4824L49.5904 3.36364H50.8631L47.6216 12.1136C47.4758 12.508 47.2952 12.8345 47.0797 13.093C46.8643 13.3549 46.6141 13.5488 46.329 13.6747C46.0473 13.8007 45.7291 13.8636 45.3745 13.8636ZM52.6118 11V3.36364H53.7453V4.51705H53.8248C53.964 4.1392 54.2159 3.83262 54.5805 3.5973C54.9451 3.36198 55.3561 3.24432 55.8135 3.24432C55.8996 3.24432 56.0074 3.24597 56.1366 3.24929C56.2659 3.2526 56.3636 3.25758 56.4299 3.2642V4.45739C56.3902 4.44744 56.299 4.43253 56.1565 4.41264C56.0173 4.38944 55.8698 4.37784 55.714 4.37784C55.3428 4.37784 55.0114 4.45573 54.7197 4.61151C54.4314 4.76397 54.2027 4.97609 54.0336 5.24787C53.8679 5.51634 53.7851 5.82292 53.7851 6.16761V11H52.6118ZM58.0207 11V3.36364H59.194V11H58.0207ZM58.6173 2.09091C58.3886 2.09091 58.1914 2.01302 58.0257 1.85724C57.8633 1.70147 57.7821 1.5142 57.7821 1.29545C57.7821 1.0767 57.8633 0.889441 58.0257 0.733664C58.1914 0.577888 58.3886 0.5 58.6173 0.5C58.846 0.5 59.0416 0.577888 59.204 0.733664C59.3697 0.889441 59.4526 1.0767 59.4526 1.29545C59.4526 1.5142 59.3697 1.70147 59.204 1.85724C59.0416 2.01302 58.846 2.09091 58.6173 2.09091ZM64.6254 14.0227C64.0586 14.0227 63.5714 13.9498 63.1637 13.804C62.7561 13.6615 62.4163 13.4725 62.1446 13.2372C61.8761 13.0052 61.6623 12.7566 61.5032 12.4915L62.4379 11.8352C62.5439 11.9744 62.6782 12.1335 62.8406 12.3125C63.003 12.4948 63.2251 12.6522 63.5068 12.7848C63.7918 12.9207 64.1647 12.9886 64.6254 12.9886C65.2419 12.9886 65.7506 12.8395 66.1517 12.5412C66.5527 12.2429 66.7532 11.7756 66.7532 11.1392V9.58807H66.6538C66.5676 9.72727 66.445 9.89962 66.2859 10.1051C66.1301 10.3073 65.9047 10.4879 65.6098 10.647C65.3181 10.8028 64.9237 10.8807 64.4265 10.8807C63.81 10.8807 63.2565 10.7348 62.766 10.4432C62.2788 10.1515 61.8927 9.72727 61.6076 9.17045C61.3259 8.61364 61.185 7.9375 61.185 7.14205C61.185 6.35985 61.3226 5.67874 61.5977 5.09872C61.8728 4.51539 62.2556 4.06463 62.7461 3.74645C63.2367 3.42495 63.8034 3.2642 64.4464 3.2642C64.9436 3.2642 65.338 3.34706 65.6297 3.51278C65.9246 3.67519 66.15 3.8608 66.3058 4.0696C66.4649 4.27509 66.5875 4.44413 66.6737 4.5767H66.793V3.36364H67.9265V11.2188C67.9265 11.875 67.7774 12.4086 67.4791 12.8196C67.1841 13.2339 66.7864 13.5372 66.2859 13.7294C65.7887 13.925 65.2352 14.0227 64.6254 14.0227ZM64.5856 9.8267C65.0563 9.8267 65.454 9.71899 65.7788 9.50355C66.1036 9.28812 66.3505 8.97822 66.5196 8.57386C66.6886 8.16951 66.7731 7.68561 66.7731 7.12216C66.7731 6.57197 66.6903 6.08641 66.5245 5.66548C66.3588 5.24455 66.1136 4.91477 65.7887 4.67614C65.4639 4.4375 65.0629 4.31818 64.5856 4.31818C64.0885 4.31818 63.6742 4.44413 63.3427 4.69602C63.0146 4.94792 62.7677 5.28598 62.602 5.71023C62.4395 6.13447 62.3583 6.60511 62.3583 7.12216C62.3583 7.65246 62.4412 8.12145 62.6069 8.52912C62.776 8.93348 63.0245 9.25166 63.3527 9.48366C63.6841 9.71236 64.0951 9.8267 64.5856 9.8267ZM71.4476 6.40625V11H70.2743V0.818182H71.4476V4.55682H71.547C71.726 4.16241 71.9944 3.84919 72.3524 3.61719C72.7137 3.38187 73.1942 3.2642 73.7941 3.2642C74.3145 3.2642 74.7702 3.36861 75.1613 3.57741C75.5524 3.78291 75.8557 4.09943 76.0711 4.52699C76.2899 4.95123 76.3993 5.49148 76.3993 6.14773V11H75.226V6.22727C75.226 5.62074 75.0685 5.15175 74.7537 4.82031C74.4421 4.48556 74.0096 4.31818 73.4561 4.31818C73.0716 4.31818 72.7269 4.39938 72.422 4.56179C72.1204 4.72419 71.8817 4.96117 71.7061 5.27273C71.5337 5.58428 71.4476 5.96212 71.4476 6.40625ZM82.0668 3.36364V4.35795H78.1094V3.36364H82.0668ZM79.2628 1.53409H80.4361V8.8125C80.4361 9.14394 80.4841 9.39252 80.5803 9.55824C80.6797 9.72064 80.8056 9.83002 80.9581 9.88636C81.1139 9.93939 81.2779 9.96591 81.4503 9.96591C81.5795 9.96591 81.6856 9.95928 81.7685 9.94602C81.8513 9.92945 81.9176 9.91619 81.9673 9.90625L82.206 10.9602C82.1264 10.9901 82.0154 11.0199 81.8729 11.0497C81.7304 11.0829 81.5497 11.0994 81.331 11.0994C80.9995 11.0994 80.6747 11.0282 80.3565 10.8857C80.0417 10.7431 79.7798 10.526 79.571 10.2344C79.3655 9.94271 79.2628 9.57481 79.2628 9.13068V1.53409ZM88.1493 11V10.1051L91.5101 6.42614C91.9045 5.99526 92.2293 5.62074 92.4845 5.30256C92.7397 4.98106 92.9286 4.67945 93.0513 4.39773C93.1772 4.11269 93.2402 3.81439 93.2402 3.50284C93.2402 3.14489 93.154 2.83499 92.9817 2.57315C92.8126 2.31132 92.5806 2.10914 92.2857 1.96662C91.9907 1.8241 91.6592 1.75284 91.2913 1.75284C90.9002 1.75284 90.5589 1.83404 90.2672 1.99645C89.9788 2.15554 89.7551 2.37926 89.596 2.66761C89.4402 2.95597 89.3624 3.29403 89.3624 3.68182H88.1891C88.1891 3.08523 88.3266 2.56155 88.6017 2.1108C88.8768 1.66004 89.2513 1.30871 89.7253 1.05682C90.2026 0.804924 90.7378 0.678977 91.3311 0.678977C91.9277 0.678977 92.4563 0.804924 92.917 1.05682C93.3777 1.30871 93.739 1.64844 94.0009 2.07599C94.2627 2.50355 94.3936 2.97917 94.3936 3.50284C94.3936 3.87737 94.3257 4.24361 94.1898 4.60156C94.0572 4.9562 93.8252 5.35227 93.4938 5.78977C93.1656 6.22396 92.7099 6.75426 92.1266 7.38068L89.8396 9.8267V9.90625H94.5726V11H88.1493ZM100.147 11.1392C99.3978 11.1392 98.7598 10.9354 98.2328 10.5277C97.7058 10.1167 97.3031 9.52178 97.0247 8.7429C96.7463 7.9607 96.6071 7.0161 96.6071 5.90909C96.6071 4.80871 96.7463 3.86908 97.0247 3.0902C97.3064 2.308 97.7108 1.71141 98.2378 1.30043C98.7681 0.886126 99.4044 0.678977 100.147 0.678977C100.889 0.678977 101.524 0.886126 102.051 1.30043C102.581 1.71141 102.986 2.308 103.264 3.0902C103.546 3.86908 103.687 4.80871 103.687 5.90909C103.687 7.0161 103.547 7.9607 103.269 8.7429C102.991 9.52178 102.588 10.1167 102.061 10.5277C101.534 10.9354 100.896 11.1392 100.147 11.1392ZM100.147 10.0455C100.889 10.0455 101.466 9.6875 101.877 8.97159C102.288 8.25568 102.493 7.23485 102.493 5.90909C102.493 5.02746 102.399 4.27675 102.21 3.65696C102.024 3.03717 101.756 2.56487 101.405 2.24006C101.057 1.91525 100.637 1.75284 100.147 1.75284C99.4111 1.75284 98.836 2.11577 98.4217 2.84162C98.0074 3.56416 97.8003 4.58665 97.8003 5.90909C97.8003 6.79072 97.8931 7.53977 98.0787 8.15625C98.2643 8.77273 98.5311 9.24171 98.8791 9.56321C99.2304 9.88471 99.653 10.0455 100.147 10.0455ZM105.776 11V10.1051L109.137 6.42614C109.531 5.99526 109.856 5.62074 110.111 5.30256C110.366 4.98106 110.555 4.67945 110.678 4.39773C110.804 4.11269 110.867 3.81439 110.867 3.50284C110.867 3.14489 110.781 2.83499 110.608 2.57315C110.439 2.31132 110.207 2.10914 109.912 1.96662C109.617 1.8241 109.286 1.75284 108.918 1.75284C108.527 1.75284 108.185 1.83404 107.894 1.99645C107.605 2.15554 107.382 2.37926 107.223 2.66761C107.067 2.95597 106.989 3.29403 106.989 3.68182H105.816C105.816 3.08523 105.953 2.56155 106.228 2.1108C106.503 1.66004 106.878 1.30871 107.352 1.05682C107.829 0.804924 108.364 0.678977 108.958 0.678977C109.554 0.678977 110.083 0.804924 110.544 1.05682C111.004 1.30871 111.366 1.64844 111.627 2.07599C111.889 2.50355 112.02 2.97917 112.02 3.50284C112.02 3.87737 111.952 4.24361 111.816 4.60156C111.684 4.9562 111.452 5.35227 111.12 5.78977C110.792 6.22396 110.336 6.75426 109.753 7.38068L107.466 9.8267V9.90625H112.199V11H105.776ZM113.995 8.91193V7.89773L118.469 0.818182H119.205V2.3892H118.708L115.327 7.73864V7.81818H121.353V8.91193H113.995ZM118.788 11V8.60369V8.13139V0.818182H119.961V11H118.788Z" fill="#404040"/>
</svg>
